<svg width="380" height="276" viewBox="0 0 380 276" fill="none" xmlns="http://www.w3.org/2000/svg">
<path d="M364.167 153.505H15.8333C7.0933 153.505 0 146.411 0 137.671C0 128.931 7.0933 121.838 15.8333 121.838H364.167C372.907 121.838 380 128.931 380 137.671C380 146.411 372.907 153.505 364.167 153.505Z" fill="#B9CF5B"/>
<path d="M364.167 32.1146H15.8333C7.0933 32.1146 0 25.0213 0 16.2812C0 7.54121 7.0933 0.447906 15.8333 0.447906H364.167C372.907 0.447906 380 7.54121 380 16.2812C380 25.0213 372.907 32.1146 364.167 32.1146Z" fill="#B9CF5B"/>
<path d="M364.167 274.891H15.8333C7.0933 274.891 0 267.798 0 259.058C0 250.318 7.0933 243.224 15.8333 243.224H364.167C372.907 243.224 380 250.318 380 259.058C380 267.798 372.907 274.891 364.167 274.891Z" fill="#B9CF5B"/>
</svg>
